<?xml version="1.0" encoding="UTF-8"?>
<svg width="132px" height="34px" xmlns="http://www.w3.org/2000/svg" viewBox="0 0 2099.29 520"><defs><style>.cls-1{fill:#00e8b4;}.cls-2{fill:#fff;}</style></defs><title>Asset 90</title><g id="Layer_2" data-name="Layer 2"><g id="Layer_1-2" data-name="Layer 1"><polygon class="cls-1" points="257.71 260 299.64 218.06 190.61 109.03 190.61 0 414.76 218.5 257.71 369.03 257.71 260"/><polygon class="cls-2" points="157.05 260 115.12 301.94 224.15 410.97 224.15 520 0 301.5 157.05 150.97 157.05 260"/><path class="cls-2" d="M625.91,365V208.94H566.24V174.65H727.7v34.29H668V365Z"/><path class="cls-2" d="M751.73,358.66a59.61,59.61,0,0,1-24.57-24q-8.64-15.51-8.64-36.58t8.64-36.59a58.84,58.84,0,0,1,24.57-23.89q15.93-8.37,37-8.37t37,8.37a58.84,58.84,0,0,1,24.57,23.89Q858.92,277,858.92,298t-8.64,36.58a59.61,59.61,0,0,1-24.57,24q-15.93,8.5-37,8.5T751.73,358.66ZM818.42,298q0-19.17-7.69-28.62t-22-9.45Q759,260,759,298t29.7,38.07Q818.42,336.11,818.42,298Z"/><path class="cls-2" d="M1080.86,243q11.07,13.77,11.07,42.12V365h-40.77V286.43q0-13.5-4.18-19.44t-14.18-5.94q-11.61,0-18.09,8.1t-6.48,22.68V365H967.46V286.43q0-13.5-4.18-19.44t-14.18-5.94q-11.61,0-18.09,8.1t-6.48,22.68V365H883.76V232.43h39.69v17.82a41.47,41.47,0,0,1,16.61-15.66,51,51,0,0,1,23.89-5.4q29.43,0,39.42,24.57a47.57,47.57,0,0,1,18.09-18,51,51,0,0,1,25.65-6.61Q1069.79,229.19,1080.86,243Z"/><path class="cls-2" d="M1149.44,358.66a59.61,59.61,0,0,1-24.57-24q-8.64-15.51-8.64-36.58t8.64-36.59a58.84,58.84,0,0,1,24.57-23.89q15.93-8.37,37-8.37t37,8.37A58.84,58.84,0,0,1,1248,261.45q8.64,15.54,8.64,36.59T1248,334.62a59.61,59.61,0,0,1-24.57,24q-15.93,8.5-37,8.5T1149.44,358.66ZM1216.13,298q0-19.17-7.69-28.62t-22-9.45q-29.7,0-29.7,38.07t29.7,38.07Q1216.13,336.11,1216.13,298Z"/><path class="cls-2" d="M1432.54,283.33q9,12,9,29.56,0,24-17.68,38.07t-48.74,14h-90.45V174.65h87.75q29.7,0,47.12,13.23T1437,224.06a43.84,43.84,0,0,1-8,26.05,45.23,45.23,0,0,1-22,16.34Q1423.49,271.31,1432.54,283.33Zm-106.79-31.19h39.69q16.2,0,23.9-5.53t7.69-16.88q0-11.88-7.69-17.41t-23.9-5.54h-39.69Zm68.85,75.06q7.56-5.67,7.56-18.36t-7.56-18.63q-7.56-5.94-24.3-5.94h-44.55v48.6h44.55Q1387,332.87,1394.6,327.2Z"/><path class="cls-2" d="M1562.27,262.67l-23,2.43q-17,1.62-24,9.59t-7,21.19V365H1467.5V232.43h39.15v22.41q10-23,41.31-25.11l11.88-.81Z"/><path class="cls-2" d="M1574.41,168.71h43.75v38.07h-43.75ZM1575.77,365V232.43h40.77V365Z"/><path class="cls-2" d="M1782,174.65V365h-40.5V345.29a41.52,41.52,0,0,1-16.87,16.07,52,52,0,0,1-24.71,5.8,54,54,0,0,1-30.37-8.78q-13.36-8.76-20.79-24.56t-7.43-36.32q0-20.52,7.43-36.05t20.65-23.89q13.23-8.37,30.51-8.37a52.3,52.3,0,0,1,24.44,5.67,40.71,40.71,0,0,1,16.88,15.93V174.65Zm-48.19,151.61q7.7-9.86,7.69-28.22T1733.85,270q-7.69-9.72-22-9.72t-22.15,9.59q-7.83,9.59-7.83,27.67,0,18.36,7.83,28.49t22.15,10.12Q1726.15,336.11,1733.85,326.26Z"/><path class="cls-2" d="M1948.63,232.43V350.69q0,32.13-18.36,48.6T1876,415.76a133,133,0,0,1-34.15-4.32,102.8,102.8,0,0,1-28.76-12.15l10.8-28.08q25.65,14,51,14,33.48,0,33.48-31.59V339.08a40.05,40.05,0,0,1-17,16.2,53.86,53.86,0,0,1-25.38,5.94q-17.28,0-30.64-8.1A55.51,55.51,0,0,1,1814.44,330q-7.56-15-7.56-34.69t7.56-34.7a56.45,56.45,0,0,1,20.93-23.21q13.37-8.24,30.64-8.24a53.5,53.5,0,0,1,25,5.81,41.17,41.17,0,0,1,17.14,16.06V232.43ZM1900.17,321q8-9.18,8-25.65t-8-25.79q-8-9.3-22.28-9.31t-22.41,9.31q-8.1,9.33-8.1,25.79,0,16.2,8.1,25.52t22.41,9.31Q1892.2,330.17,1900.17,321Z"/><path class="cls-2" d="M2099.29,306.41h-86.4q1.89,15.93,10.4,23.09t24.16,7.15a63.8,63.8,0,0,0,20.38-3.38,65.43,65.43,0,0,0,18.5-9.58l10.8,27.27a73.72,73.72,0,0,1-23.63,11.88,93.69,93.69,0,0,1-27.94,4.32q-33.48,0-52.78-18.49t-19.31-50.36q0-20.25,8.37-35.91A61.44,61.44,0,0,1,2005.06,238q14.85-8.76,33.75-8.77,27.81,0,44.14,18.09t16.34,49.14Zm-77.89-41.72q-6.9,7.44-8.51,21.47H2065q-.81-14.31-7.16-21.6t-18-7.29Q2028.28,257.27,2021.4,264.69Z"/></g></g></svg>